<?xml version="1.0" encoding="UTF-8"?>
<svg id="Layer_2" data-name="Layer 2" xmlns="http://www.w3.org/2000/svg" viewBox="0 0 382.61 186.5">
  <defs>
    <style>
      .cls-1 {
        fill: #ffcae2;
      }

      .cls-2 {
        fill: #ffe2ae;
      }
    </style>
  </defs>
  <g id="logo_and_font" data-name="logo and font">
    <g>
      <path class="cls-2" d="m327.51,135.71c.73-.09,1.19-.79,1.55-1.43.96-1.69,5.09-7.56,2.09-9.28-1.04-.56-2.53.1-2.8,1.24-.16-.68-.33-1.38-.71-1.96-.38-.59-1.02-1.06-1.72-1.04-1.23.03-1.96,1.46-1.99,2.69-.03,1.09.22,5.07,1.23,7.61.54,1.35,1.3,2.29,2.35,2.17Z"/>
      <g>
        <path class="cls-2" d="m146.79,41.55c.73-.09,1.19-.79,1.55-1.43.96-1.69,5.09-7.56,2.09-9.28-1.04-.56-2.53.1-2.8,1.24-.16-.68-.33-1.38-.71-1.96-.38-.59-1.02-1.06-1.72-1.04-1.23.03-1.96,1.46-1.99,2.69-.03,1.09.22,5.07,1.23,7.61.54,1.35,1.3,2.29,2.35,2.17Z"/>
        <path class="cls-2" d="m195.82,41.55c.73-.09,1.19-.79,1.55-1.43.96-1.69,5.09-7.56,2.09-9.28-1.04-.56-2.53.1-2.8,1.24-.16-.68-.33-1.38-.71-1.96-.38-.59-1.02-1.06-1.72-1.04-1.23.03-1.96,1.46-1.99,2.69-.03,1.09.22,5.07,1.23,7.61.54,1.35,1.3,2.29,2.35,2.17Z"/>
        <path class="cls-2" d="m381.79,65.25c-.97-.91-2.46-.97-3.62-.32-2.34,1.32-2.97,3.85-4.15,6-10.5,19.04-29.72-3.31-40.54-8-10.62-4.6-19.95.68-28.72,6.33-1.32.85-2.63,1.74-3.95,2.67-.41.28-.72.43-.94.44-.21.01-.46-.18-.74-.6-2.27-3.74-6.02-8.26-6.7-12.71-.29-1.91.44-4.09,2.16-4.98,1.09-.56,2.52-.35,3.46.38.41.32,1-.02.92-.53-.66-4.08-4.15-7.69-8.31-8.13-8.47-.91-11.08,7.23-9.19,13.82.55,2.02,1.24,3.97,2.08,5.84.15.34.33.67.48,1.01-.11.4-.22.8-.34,1.21-1.51,4.85-3.7,9.3-6.58,13.36-.26.33-.52.64-.79.93-.26.3-.62.51-1.08.64-.26-.26-.43-.54-.49-.83-.07-.3-.16-.6-.29-.93-.53-1.77-.87-3.55-1.03-5.35-.16-1.8-.18-3.62-.05-5.45.06-2.95.29-5.88.69-8.79.39-2.91.88-5.84,1.47-8.79.13-.79.11-1.39-.05-1.82-.16-.42-.61-.83-1.33-1.23-2.16-1.11-4.39-1.44-6.68-.98-.92.13-1.54.38-1.87.74-.33.36-.59,1-.79,1.92-.2,1.05-.33,2.1-.39,3.14-.07,1.05-.26,2.1-.59,3.14-.92,2.95-1.88,5.86-2.9,8.74-1.02,2.88-2.15,5.73-3.39,8.55-1.11,2.36-2.39,4.71-3.83,7.07-.26-.2-.39-.33-.39-.39-.59-1.57-.97-3.16-1.13-4.76-.16-1.6-.25-3.22-.25-4.86.06-1.51.2-2.95.39-4.32.2-1.37.46-2.78.79-4.22.33-1.9.75-3.75,1.28-5.55.52-1.8,1.24-3.55,2.16-5.25.65-1.24.36-2.23-.88-2.95-2.29-1.24-4.75-1.6-7.37-1.08-1.77.2-2.98,1.18-3.63,2.95-.13.52-.28,1.03-.44,1.52-.16.49-.31,1-.44,1.52-.79,3.41-1.21,6.81-1.28,10.22-.02.92-.01,1.84.02,2.77-.51,1.15-1.13,2.23-1.88,3.22-1.11,1.37-2.55,2.49-4.32,3.34-.13-.26-.18-.49-.15-.69.03-.2.08-.39.15-.59.26-1.51.46-3.04.59-4.62.13-1.57.2-3.14.2-4.71,0-1.77-.2-3.54-.59-5.3-.52-2.55-1.59-4.57-3.19-6.04-1.61-1.47-3.59-2.63-5.94-3.49-.85-.26-1.72-.39-2.6-.39s-1.78-.07-2.7-.2c-1.7-.2-3.19.03-4.47.69-1.28.66-2.37,1.64-3.29,2.95-1.51,2.03-2.59,4.21-3.24,6.53-.64,2.28-1,4.64-1.07,7.08-.42,1.09-.87,2.17-1.36,3.23-1.05,2.26-2.16,4.5-3.34,6.73-.59,1.11-1.21,2.19-1.87,3.24-.66,1.05-1.44,2.03-2.36,2.95-.13.13-.29.3-.49.49-.2.2-.39.36-.59.49-.46.46-.79.36-.98-.3-.07-.33-.11-.6-.15-.84-.03-.23-.08-.51-.15-.83-.33-1.7-.54-3.44-.64-5.21-.1-1.77-.18-3.54-.25-5.3-.07-2.95.05-5.88.34-8.79.29-2.91.7-5.84,1.23-8.79.26-1.18-.13-2.13-1.18-2.85-.66-.46-1.33-.79-2.01-.98-.69-.2-1.39-.36-2.11-.49-1.05-.13-1.8,0-2.26.39-.46.39-.75,1.08-.88,2.06-.39,2.29-.69,4.63-.88,7.02-.2,2.39-.33,4.83-.39,7.32-.1.96-.14,1.97-.14,2.99-.73,1.7-1.57,3.33-2.54,4.87-1.96,3.14-4.36,6.09-7.17,8.84-.98.92-2.06,1.61-3.24,2.06-.72.39-1.37.3-1.96-.29-1.57-1.31-2.65-3.01-3.24-5.11-.59-2.16-.88-4.32-.88-6.48s.16-4.3.5-6.43c.33-2.13.76-4.24,1.29-6.34.59-2.16,1.52-4.03,2.78-5.6.79-1.05,1.37-1.59,1.74-1.62,4.32-.36,1.03,6.81.51,7.98-.72,1.63-1.37,3.75-.11,5.02.75.75,1.97.87,2.96.49.99-.38,1.76-1.18,2.34-2.06,4.59-6.94-1.76-15.93-9.48-15.02-1.97.26-3.68.9-5.13,1.91-1.45,1.02-2.63,2.37-3.55,4.08-1.32,2.23-2.25,4.58-2.81,7.07-.32,1.42-.55,2.9-.71,4.43-.38.97-.77,1.94-1.21,2.89-1.05,2.26-2.16,4.5-3.34,6.73-.59,1.11-1.21,2.19-1.87,3.24-.66,1.05-1.44,2.03-2.36,2.95-.13.13-.29.3-.49.49-.2.2-.39.36-.59.49-.46.46-.79.36-.98-.3-.07-.33-.11-.6-.15-.84-.03-.23-.08-.51-.15-.83-.33-1.7-.54-3.44-.64-5.21-.1-1.77-.18-3.54-.25-5.3-.07-2.95.05-5.88.34-8.79.29-2.91.7-5.84,1.23-8.79.26-1.18-.13-2.13-1.18-2.85-.66-.46-1.33-.79-2.01-.98-.69-.2-1.39-.36-2.11-.49-1.05-.13-1.8,0-2.26.39-.46.39-.75,1.08-.88,2.06-.39,2.29-.69,4.63-.88,7.02-.04.49-.07,1-.1,1.49-.52,2.79-1.04,5.58-1.56,8.37-.62,3.34-1.12,6.69-2.1,9.93-.3.99-.69,1.92-1.18,2.78-.6.97-1.22,1.73-1.84,2.28-.59.37-1.16.37-1.71-.03-.32-.27-.74-.69-1.26-1.26-.73-.95-1.35-1.96-1.88-3.04-.52-1.08-.99-2.16-1.42-3.26-1.1-3.07-2.1-6.17-3.01-9.28-.91-3.11-1.63-6.3-2.16-9.58-.18-.89-.06-1.59.37-2.11.91-1.12,1.7-2.31,2.37-3.59.67-1.28,1.26-2.65,1.76-4.1,2.85-8.28,4.18-16.92,4-25.94,0-1.61-.07-3.18-.21-4.71-.15-1.53-.39-3.11-.72-4.74-.27-1.64-.75-3.15-1.43-4.53-.68-1.38-1.59-2.55-2.72-3.5-1.03-.8-2.14-1.44-3.3-1.92-1.17-.48-2.34-.66-3.52-.55-1.18.12-2.33.54-3.45,1.28-1.12.74-2.11,1.95-2.96,3.65-.08.27-.19.55-.33.83-.14.28-.25.56-.33.83-.9,2.13-1.53,4.33-1.9,6.61-.37,2.28-.6,4.65-.69,7.12-.25,5.63-.06,11.2.57,16.69.63,5.5,1.41,10.85,2.34,16.07.3,1.8.63,3.42,1,4.87.36,1.45.72,2.86,1.07,4.22.24.85.5,1.69.76,2.52-.56,1.55-1.16,3.06-1.85,4.52-1.18,2.49-2.52,4.91-4.03,7.27-.66.98-1.36,1.88-2.11,2.7-.75.82-1.59,1.59-2.5,2.31-.52.46-1.08.82-1.67,1.08-.59.26-1.24.49-1.96.69-.79.39-1.57.2-2.36-.59-.72-.85-1.31-1.67-1.77-2.46-.72-1.18-1.24-2.42-1.57-3.73-.33-1.31-.59-2.65-.79-4.03-.13-.92-.13-1.42,0-1.52.13-.1.65-.18,1.57-.25,3.54,0,6.55-1.28,9.04-3.83,2.81-3.01,4.52-6.58,5.11-10.7.2-1.7-.11-3.37-.93-5.01-.82-1.64-2.34-2.78-4.57-3.44-4.13-1.18-7.86-.49-11.2,2.06-1.31.98-2.37,2.11-3.19,3.39-.82,1.28-1.56,2.64-2.21,4.08-1.38,3.28-2.15,6.63-2.32,10.06-.27-.07-.55-.13-.83-.15-.96-.22-1.93-.39-2.91-.51s-1.96-.23-2.95-.32c-.73-.03-.93-.34-.59-.94.03-.13.07-.24.12-.32.05-.09.09-.2.12-.32.91-1.94,1.71-3.93,2.41-5.95.69-2.02,1.34-4.04,1.93-6.06.54-2.09.93-4.17,1.16-6.23.23-2.06.23-4.19,0-6.4-.59-5.1-2.91-9.09-6.96-11.95-1.44-1.06-2.98-1.6-4.62-1.6-1.65,0-3.22.5-4.72,1.5-1.82,1.2-3.47,2.57-4.96,4.11-1.49,1.54-2.93,3.16-4.33,4.86-2.71,3.35-5.2,6.79-7.48,10.34-2.28,3.55-4.31,7.3-6.08,11.26-.09.11-.18.26-.25.45-.08.18-.23.35-.47.5.07-.92.17-1.81.3-2.65.12-.84.29-1.71.49-2.61.65-2.87,1.42-5.67,2.31-8.39.88-2.72,1.85-5.47,2.88-8.26.74-1.78,1.54-3.48,2.41-5.09.87-1.62,2-3.11,3.38-4.47.56-.68.66-1.43.31-2.25-.35-.55-.8-1.05-1.37-1.52-1.51-1.35-3.22-2.24-5.13-2.68-1.6-.36-3.03.02-4.29,1.14-1.9,1.58-3.5,3.57-4.78,5.97-.38.79-.99,1.42-1.84,1.9-.83.42-1.69.84-2.56,1.28-.87.44-1.73.9-2.58,1.38-3.4,1.65-6.57,3.51-9.53,5.59-.88.61-1.71,1.26-2.51,1.95-.8.69-1.56,1.46-2.28,2.3-.48.63-.93,1.3-1.36,2.01-.43.71-.68,1.49-.73,2.35-.35,2.74.16,4.97,1.55,6.7,1.63,2.02,8.26,6.72,7.9.89-.09-1.42-.79-2.71-1.22-4.07-2.71-8.62,5.35-12.11,11.35-15.69.16-.1.28-.19.36-.27.09-.08.25-.06.49.06-.2.89-.46,1.79-.76,2.7-.31.91-.57,1.84-.79,2.79-.52,2.3-1.03,4.62-1.53,6.96-.5,2.34-.85,4.69-1.05,7.06-.22,2.44-.3,4.87-.25,7.3.09,3.95-.81,13.31,3.48,15.31,4,1.87,6.55-1.5,7.71-4.71.21-.62.35-1.11.43-1.46.08-.35.2-.61.38-.77.17-.16.41-.31.71-.44.3-.13.77-.29,1.42-.48,1.75-.61,3.48-1.12,5.18-1.54,1.78-.47,3.55-.62,5.29-.46,1.74.16,3.58.29,5.5.39-1.19,1.68-2.42,3.25-3.69,4.7-2.55,2.93-4.42,5.68-8.12,7.08-4.49,1.7-9.55,1.9-14.29,1.71-6.51-.26-13.01-1.33-19.5-.81-6.49.52-13.22,2.93-17.09,8.17-1.63,2.21-2.25,6.07.29,7.14,1.54.65,3.33-.28,4.4-1.56s1.69-2.88,2.68-4.22c2.85-3.86,8.27-4.9,13.02-4.24,5.76.81,9.84,3.81,15.17,5.52,5.94,1.92,12.52,1.87,18.4-.25,6.28-2.27,11.02-6.66,14.66-12.14,1.62-2.43,3.31-4.35,5.14-6.6,2.89-3.56,3.03-3.28,7.8-2.58,1.03.15,2.08.27,3.15.36-.02.71,0,1.41.09,2.09.13,1.08.36,2.15.69,3.19.85,2.82,2.13,5.19,3.83,7.12,1.7,1.93,4.06,3.26,7.07,3.98,1.77.39,3.49.47,5.16.25,1.67-.23,3.22-1,4.67-2.31.52-.46,1.05-.93,1.57-1.42.52-.49.98-1.03,1.38-1.62,2.16-2.95,3.91-5.99,5.25-9.13.43-1,.81-2.02,1.18-3.06.06.17.11.34.17.51.86,2.4,1.89,4.75,3.1,7.04,1.42,2.67,3.09,4.82,5.03,6.45,1.94,1.63,4.19,2.52,6.77,2.67,3.63.44,6.11-1.34,7.43-5.33.58-1.77,1.15-3.65,1.6-5.55.23,1.48.55,2.9.99,4.24.59,1.83,1.47,3.32,2.65,4.47,1.18,1.15,2.75,1.88,4.71,2.21,1.9.33,3.5-.13,4.81-1.37.52-.52,1-1.05,1.42-1.57.43-.52.8-1.11,1.13-1.77,1.5-2.86,2.85-5.76,4.05-8.69.17,1.02.41,2.05.76,3.09.72,2.1,1.72,4,3,5.7,1.28,1.7,2.96,3.04,5.06,4.03,5.43,2.55,9.89,1.8,13.36-2.26,2.62-3.08,4.76-6.37,6.43-9.87.12-.26.23-.52.35-.78,0,.08,0,.16.01.24.2,2.36.62,4.55,1.28,6.58.59,1.83,1.47,3.32,2.65,4.47,1.18,1.15,2.75,1.88,4.71,2.21,1.9.33,3.5-.13,4.81-1.37.52-.52,1-1.05,1.42-1.57.43-.52.8-1.11,1.13-1.77,1.51-2.88,2.86-5.79,4.08-8.74.21-.5.38-1.02.57-1.53.51,2.69,1.43,5.29,2.79,7.82,1.18,2.16,2.68,3.83,4.52,5.01,1.83,1.18,3.93,1.93,6.29,2.26,3.47.52,6.25-.62,8.35-3.44.65-.72,1.16-1.51,1.52-2.36.36-.85.7-1.73,1.03-2.65.33-.65.75-.98,1.28-.98,1.24,0,2.36-.39,3.34-1.18,1.28-.97,2.37-2.08,3.28-3.3.1.93.21,1.87.36,2.8.2,1.31.47,2.59.83,3.83.36,1.25.87,2.42,1.52,3.54,1.7,3.08,4.35,4.62,7.96,4.62,2.16,0,3.63-.95,4.42-2.85.13-.26.25-.52.34-.79.1-.26.21-.52.34-.79.85-2.09,1.62-4.19,2.31-6.29.69-2.09,1.39-4.19,2.11-6.29.13-.26.21-.51.25-.74.03-.23.21-.47.54-.74.06.59.1,1.15.1,1.67s.03,1.05.1,1.57c.06,1.31.2,2.59.39,3.83.2,1.24.49,2.46.88,3.63,1.18,4.06,3.83,6.45,7.96,7.17,2.03.33,3.6.23,4.71-.3,1.11-.52,2.16-1.64,3.14-3.34.13-.26.26-.51.39-.74.13-.23.26-.47.39-.74,1.18-2.42,2.13-4.91,2.85-7.46.34-1.21.72-2.43,1.07-3.64.18.32.34.65.53.97.76,1.24,1.47,2.48,2.15,3.72.67,1.24,1.3,2.49,1.89,3.74.58,1.16.43,2.28-.44,3.36-1.36,1.62-2.65,3.28-3.87,4.98-1.23,1.7-2.34,3.52-3.33,5.46-2,3.71-2.15,7.61-.46,11.7.91,2.34,2.63,3.9,5.15,4.7,2.09.64,4.42.93,6.98.87.16-.1.67-.17,1.53-.22.16-.1.35-.15.57-.16.21-.01.4-.07.57-.16,2.6-.75,4.6-2.01,6-3.76,1.39-1.75,2.4-3.84,3.03-6.27.96-3.91.93-8.01-.09-12.31-.77-2.95-1.94-5.95-3.49-9.03-.47-.74-.67-1.22-.6-1.44.07-.22.48-.61,1.21-1.16.65-.55,1.35-1.08,2.08-1.6.74-.51,1.43-1.05,2.09-1.6,1.14-.92,2.33-1.74,3.57-2.46,4.72-2.72,8.31-6.69,14.27-4.3,3.96,1.59,6.86,5.03,9.36,8.49,2.5,3.46,4.85,7.16,8.28,9.7,13.74,10.2,27.55-2.3,37.23-11.46,1.85-1.75,3.65-4.72,1.73-6.53Zm-286.95,2.33c.33-2.62.87-5.14,1.62-7.56.75-2.42,2.01-4.68,3.78-6.78.85-1.11,1.83-1.93,2.95-2.46.92-.52,1.64-.33,2.16.59.79,1.31,1.11,2.75.98,4.32-.33,2.55-1.1,4.81-2.31,6.78-1.21,1.97-2.87,3.7-4.96,5.21-.85.66-1.9,1.08-3.14,1.28-.52.13-.83.15-.93.05-.1-.1-.15-.41-.15-.93v-.49Zm-18.11-28.76c-.33,2.34-.87,4.64-1.61,6.88-.75,2.25-1.56,4.45-2.45,6.59-1.63,3.93-3.5,7.6-5.62,11.01-.52.82-1.24,1.16-2.15,1.02-1.12-.12-2.21-.25-3.29-.39-1.08-.14-2.15-.2-3.23-.18-3.35-.02-6.6.38-9.74,1.21-.14.03-.26.06-.37.07-.1,0-.23.03-.37.07l-.19-.04c.05-.52.2-1.01.43-1.46.24-.45.44-.92.62-1.42,1.69-4.18,3.67-8.13,5.96-11.84,2.29-3.71,4.89-7.28,7.82-10.71,1.27-1.46,2.65-2.74,4.15-3.84,1.49-1.1,3.05-2.14,4.68-3.12.91-.46,1.99-.79,3.24-.98.76-.1,1.25-.05,1.48.13.22.19.39.63.5,1.32.42,1.98.47,3.87.12,5.67Zm45.49,11.21c-.06.01-.11.04-.13.09-.02.05-.07.08-.13.09-.4-1.95-.73-3.89-.99-5.82-.26-1.93-.53-3.89-.8-5.86-.51-3.45-.81-6.89-.92-10.34-.1-3.45-.16-6.94-.15-10.5.02-1.53.16-3.03.42-4.53.26-1.49.58-2.95.96-4.38.19-.71.45-1.4.78-2.06.33-.66.7-1.29,1.12-1.88.65.55,1.16,1.18,1.54,1.9.38.73.73,1.52,1.04,2.39.64,1.82,1.09,3.67,1.34,5.56.25,1.89.41,3.81.48,5.74.12,3.19.05,6.35-.21,9.49-.26,3.14-.67,6.25-1.25,9.33-.33,1.67-.65,3.35-.98,5.02-.33,1.67-.84,3.26-1.53,4.75l-.5.99-.1.02Zm107.38,25.11c-.26.66-.51,1.29-.74,1.92-.8,2.17-2.06,4.19-4.32,5.05-.22.08-.46.16-.69.1-.3-.07-.51-.32-.68-.57-4.46-6.06-5.07-14.53-3.3-21.63.33-1.31.74-2.55,1.23-3.73.89-2.15,2.3-3.96,4.01-5.52.09-.08.19-.17.32-.2.14-.03.28.03.41.09,2.49,1.17,4.21,3.15,4.94,5.81.64,2.34.86,4.7.8,7.07-.09,3.9-.95,7.81-1.98,11.59Zm63.26,21.32c-.28,1.68-.73,3.19-1.33,4.51-.61,1.32-1.36,2.3-2.26,2.96-1.57-1.88-2.2-3.93-1.91-6.17.29-2.24.9-4.27,1.82-6.07.92-1.81,2.01-3.6,3.27-5.39.43,1.51.68,3.17.74,4.96.06,1.79-.05,3.53-.33,5.21Z"/>
      </g>
      <path class="cls-1" d="m328.83,138.3c-3.97,0-7.87,1.59-10.86,4.18-.17.15-.34.3-.5.45-3.29,3.1-3.23,6.79-5.6,10.31-.07.11-.15.22-.22.33-.07.11-.2.16-.38.16-.25-.44-.44-.98-.54-1.63-.54-2.39-.87-4.84-.98-7.35-.07-1.6-.09-3.18-.06-4.76.04-1.58.09-3.18.16-4.82.07-1.27.15-2.52.24-3.76.09-1.23.21-2.47.35-3.7.07-.62.14-1.23.19-1.85.05-.62.17-1.23.35-1.85.18-.51.23-.89.14-1.14-.09-.25-.37-.53-.84-.82-.62-.4-1.27-.68-1.96-.84-.69-.16-1.4-.21-2.12-.14-.58.07-.99.22-1.22.44-.24.22-.43.62-.57,1.2-.22,1.16-.4,2.32-.54,3.48-.15,1.16-.24,2.32-.27,3.48,0,.44-.04.86-.11,1.28-.07.42-.16.83-.27,1.22-.4,1.63-.83,3.24-1.28,4.82-.45,1.58-.93,3.17-1.44,4.76-.94,2.83-2.09,5.55-3.43,8.16-.25.44-.53.86-.82,1.28-.29.42-.58.83-.87,1.22-.33.43-.69.73-1.09.87-.22-.22-.4-.56-.54-1.03-.22-.47-.4-.96-.54-1.47-.15-.51-.25-1.02-.33-1.52-.18-1.27-.31-2.52-.38-3.75-.07-1.23-.09-2.48-.05-3.76.04-1.52.12-3.06.24-4.6.13-1.54.3-3.08.52-4.6.14-1.01.26-2.01.35-2.99.09-.98.21-1.98.35-2.99.07-.54.15-1.08.24-1.61.09-.53.12-1.06.08-1.61-.07-.58-.31-1.09-.71-1.52-.15-.11-.29-.22-.44-.33-.15-.11-.31-.22-.49-.33-1.09-.58-2.01-.36-2.77.65-.18.25-.33.51-.44.76-1.1,2.58-1.88,5.29-2.56,8-.44,1.74-.74,3.47-.93,5.17-.18,1.71-.22,3.45-.11,5.22.07,1.09.2,2.15.37,3.21-.32-.32-.7-.52-1.16-.6-.36-.04-.57-.08-.63-.14s-.08-.26-.08-.63c-.04-.87-.03-1.74.03-2.61.05-.87.08-1.76.08-2.67-.04-1.09-.04-2.19,0-3.29.04-1.11.09-2.2.16-3.29.07-1.34.15-2.67.25-4,.09-1.32.1-2.66.03-4,0-.47-.07-.81-.22-1.01-.15-.2-.43-.39-.87-.57-1.16-.33-2.3-.29-3.43.11-.29.15-.49.3-.6.46-.11.16-.18.39-.22.68-.07.65-.12,1.3-.14,1.93-.02.64-.06,1.28-.14,1.93-.07.73-.1,1.47-.08,2.23.02.76,0,1.51-.03,2.23-.11,2.07-.22,4.1-.33,6.1-.11,2-.16,4.03-.16,6.09,0,.18-.02.33-.05.44,0,.22-.11.35-.33.38-.73.04-1.45.05-2.18.05s-1.45-.04-2.18-.11c-.51-.11-.89-.36-1.14-.76-.25-.33-.46-.68-.63-1.06-.16-.38-.26-.79-.3-1.22-.07-.76-.09-1.53-.05-2.31.04-.78.14-1.57.33-2.37.4-2.1.96-4.14,1.69-6.12.73-1.98,1.51-3.95,2.34-5.9.18-.44.24-.77.16-1.01-.07-.24-.33-.48-.76-.73-.62-.4-1.38-.6-2.29-.6-.87-.04-1.58.29-2.12.98-.29.36-.54.73-.76,1.09-.22.36-.44.74-.65,1.14-.65,1.31-1.19,2.66-1.61,4.05-.42,1.4-.83,2.8-1.22,4.22-.29,1.02-.51,2.05-.65,3.1-.15,1.05-.15,2.1,0,3.16.11.94.36,1.81.76,2.58.4.78,1.02,1.44,1.85,1.99.76.54,1.55.99,2.37,1.33.82.35,1.7.57,2.64.68.65.07,1.31.1,1.99.08.67-.02,1.33-.04,1.99-.08.4-.04.63-.03.71.03.07.05.13.28.16.68.07.98.14,1.96.22,2.94.07.98.14,1.96.22,2.94.07.58.16,1.15.27,1.71.11.56.31,1.1.6,1.61.22.47.54.78.98.93.83.29,1.65.27,2.45-.05.69-.36,1.02-.89.98-1.58v-4.03c-.07-.91-.11-1.75-.11-2.53v-2.26c0-.33.03-.52.08-.57.05-.05.24-.1.57-.14.18-.04.35-.05.52-.05h.52c.19,0,.34-.02.46-.06.01.06.02.11.03.17.34,1.6.88,3.16,1.61,4.68,1.27,2.65,3.28,4.41,6.04,5.28.94.29,1.67.32,2.18.08.51-.24,1.02-.79,1.52-1.66.4-.72.75-1.5,1.06-2.31.31-.82.63-1.64.95-2.48.22-.58.44-1.16.65-1.74.22-.58.42-1.18.6-1.8.33-1.16.65-2.34.98-3.54.33-1.2.67-2.38,1.03-3.54.04-.07.06-.15.08-.24.02-.09.1-.17.24-.25v.65c.04,1.05.07,2.11.11,3.18.04,1.07.13,2.13.27,3.18.68,5.29,2.63,12.71,8.76,13.88,3.85.73,8.05-1.52,9.58-5.13.98-2.32.91-4.93,1.45-7.39.54-2.46,2.06-5.05,4.54-5.46,1.23-.2,3.01-.21,3.12-1.45.09-1.09-1.34-1.57-2.43-1.57Z"/>
      <g>
        <path class="cls-1" d="m371.28,61.55c.02-.18.03-.37.05-.55.08-1.1.17-2.21-.04-3.3s-.74-2.15-1.66-2.76c-1.09-.72-2.49-.69-3.8-.64-3.11.13-6.23.27-9.34.4-3.85,0-7.5.12-11.3.73-.99.16-2.04.35-2.76,1.03-.53.5-.82,1.22-.94,1.94-.26,1.6-.36,3.52-.15,5.13.22,1.64,1.69,1.98,2.74.72.49-.58.77-1.31,1.21-1.94s1.12-1.18,1.88-1.11c1.8.17,2.25,3.42,4.05,3.22,1.7-.18,1.78-3.26,3.47-3.45,1.71-.19,2.06,2.66,3.64,3.34,1.51.65,2.96-.99,3.8-2.4s2.29-3.05,3.8-2.4c1.68.72,1.49,4.73,3.46,4.62.68-.04,1.25-.57,1.53-1.18.21-.45.29-.93.35-1.43Z"/>
        <path class="cls-1" d="m366.21,48.51c.51-.71.61-1.93.62-2.68.02-1.52-.08-3.17-1.07-4.32-.74-.85-1.87-1.28-2.99-1.38s-2.28.17-3.4.15c-1.11-.02-2.21-.07-3.33-.03-2.55.09-5.09.18-7.64.27-1.17.04-2.39.1-3.42.66-1.45.8-2.22,2.48-2.36,4.12-.14,1.64.27,3.28.67,4.88.28,1.13,1.6,1.57,2.34.67s.74-2.17,1.13-3.27c.39-1.09,1.67-2.12,2.63-1.47,1.05.7.71,2.76,1.93,3.1.98.27,1.68-.92,1.96-1.9.28-.98.87-2.2,1.87-2.05,1.47.21,1.42,3.05,2.9,3.05,1.58,0,1.12-2.98,2.55-3.65.72-.33,1.58.13,2.05.77.64.87.68,1.76,1.1,2.69.2.45.59.84,1.07.93.64.12,1.08-.13,1.38-.54Z"/>
        <path class="cls-1" d="m354.11,33.29c-1.39.15-2.22,1.71-2.11,3,.1,1.16,1.08,1.89,2.12,1.94.85.12,1.79-.23,2.3-.93,1.14-1.57-.38-4.21-2.31-4Z"/>
      </g>
      <g>
        <path class="cls-2" d="m192.38,121.84c-.1-.4-.2-.82-.42-1.16-.23-.35-.6-.63-1.02-.62-.73.02-1.16.86-1.18,1.59-.02.65.13,3.01.73,4.51.32.8.77,1.36,1.39,1.28.43-.05.71-.47.92-.85.57-1,3.02-4.48,1.24-5.5-.61-.33-1.5.06-1.66.74Z"/>
        <path class="cls-2" d="m94.91,166.5c-8.9-.81-18.42-1.2-25.68-6.43-9.47-6.81-9.06-16.52-8.72-26.87.14-2.81.29-5.6.43-8.38.14-2.78.24-5.58.29-8.38,0-.43.04-.68.11-.75.07-.07.32-.08.75-.04.9.05,1.78.08,2.64.11.86.02,1.74-.04,2.64-.18,2.9-.48,5.47-1.69,7.71-3.64.71-.66,1.19-1.55,1.43-2.64.14-.48.02-.86-.36-1.14-.19-.19-.37-.24-.53-.14-.17.1-.32.19-.46.29-.38.24-.77.48-1.18.71-.4.24-.85.43-1.32.57-1.57.43-3.21.57-4.92.43-3.57-.3-6.67,1.01-7.45-3.52-.38-2.22-.62-4.47-.72-6.73-.07-1.5-2.03-2.07-2.89-.83-2.28,3.27-4.92,6.5-7.9,8.72-3.64,2.71-7.71,3.16-10.3,7.57-.47.81-.88,1.64-1.21,2.5-.33.86-.5,1.76-.5,2.71-.09,2.19.24,4.19,1,5.99,1.14,2.71,3.51,5.57,6.49,6.3.93.23,1.99.11,2.7-.52.71-.64.88-1.88.2-2.55-.73-.72-1.94-.5-2.93-.21-2.44.7-3.58-.44-4.24-2.73-.43-1.47-.38-3,.14-4.57.43-1.24.97-2.39,1.64-3.46.67-1.07,1.59-1.94,2.78-2.6.62-.38,1.25-.66,1.89-.86.64-.19,1.3-.36,1.96-.5.43-.09.84-.17,1.25-.21.4-.05.82-.09,1.25-.14.43-.05.62.17.57.64-.05.33-.08.67-.11,1-.02.33-.06.67-.11,1-.24,2.57-.38,5.04-.43,7.42-.05,2.38-.07,4.26-.07,5.64.3,12.69-2.47,25.51,6.73,36.07,6.72,7.71,17.64,11.52,27.7,9.66,4.15-.77,8.12-2.42,12.31-2.95s8.93.33,11.55,3.64c1.5,1.9,2.11,4.34,3.3,6.45,1.33,2.35,3.98,4.46,6.64,3.2,1.21-.57,2.04-1.75,2.34-3.06.57-2.55-.62-4.96-2.18-6.9-5.59-6.98-15.31-8.87-24.21-9.68Z"/>
        <path class="cls-2" d="m259.42,135.09c-2.4-2.08-7.43,1.38-9.52,2.69-.18.11-.32.16-.41.16s-.19-.09-.3-.27c-.37-.69-.74-1.37-1.12-2.03-.38-.66-.74-1.33-1.07-2.03-.22-.44-.2-.88.06-1.32.58-1.02.99-2.05,1.21-3.07.07-.4.07-.8,0-1.18-.07-.38-.29-.72-.66-1.01-.44-.4-.92-.67-1.45-.8-.53-.13-1.05-.13-1.56,0-.51.13-.98.38-1.4.74-.42.37-.74.82-.96,1.37-.48,1.13-.57,2.36-.27,3.67.18.88.43,1.73.74,2.55.05.14.11.28.17.41-.26.5-.47,1.01-.61,1.53-.08.3-.17.61-.26.91-.03.1-.06.2-.08.3-.06.22-.12.43-.18.65-.61,1.97-1.29,3.64-2.24,5.7,0,.01.01.02.02.03-.53,1.12-1.09,2.23-1.66,3.34-.31.67-.68,1.29-1.09,1.88-.41.59-.93,1.14-1.56,1.64-.04-.16-.07-.28-.09-.38-.02-.1-.03-.19-.03-.26-.16-1.33-.18-2.72-.06-4.17.08-1.25.14-2.51.18-3.76.04-1.25.1-2.51.18-3.76.04-1.21-.12-2.51-.47-3.88-.58-2.23-1.95-3.66-4.09-4.29-1.44-.39-2.63-.04-3.57,1.06-.62.7-1.07,1.43-1.34,2.17-.43,1.02-.83,2.06-1.2,3.11-.37,1.06-.71,2.11-1.02,3.17-.16.59-.3,1.17-.44,1.73-.14.57-.3,1.17-.5,1.79-.08-.2-.12-.37-.12-.53v-.47c.04-1.68.11-3.37.21-5.05.1-1.68.3-3.37.62-5.05.12-.63-.08-1.14-.59-1.53-1.02-.82-2.15-1.23-3.41-1.23-.55,0-.91.09-1.09.26-.18.18-.28.54-.32,1.09-.08,1.02-.15,2.01-.21,2.97-.06.96-.13,1.95-.21,2.97-.1,1.4-.14,2.81-.14,4.21-.36.98-.84,1.88-1.45,2.7-.68.84-1.56,1.52-2.63,2.03-.08-.16-.11-.3-.09-.42.02-.12.05-.24.09-.36.16-.92.28-1.86.36-2.81.08-.96.12-1.92.12-2.87,0-1.08-.12-2.15-.36-3.23-.32-1.56-.97-2.78-1.95-3.68-.98-.9-2.18-1.61-3.62-2.12-.52-.16-1.05-.24-1.59-.24s-1.09-.04-1.65-.12c-1.04-.12-1.95.02-2.72.42-.78.4-1.45,1-2.01,1.8-.92,1.24-1.58,2.56-1.97,3.98-.4,1.42-.62,2.88-.66,4.4-.03,1.14.09,2.25.29,3.35-.42.87-.83,1.73-1.29,2.59-.35.66-.72,1.3-1.11,1.92-.39.62-.85,1.2-1.4,1.75-.08.08-.17.17-.29.29-.12.12-.23.21-.35.29-.27.27-.47.21-.58-.17-.04-.19-.07-.36-.09-.5-.02-.14-.05-.3-.09-.49-.19-1.01-.32-2.04-.38-3.09-.06-1.05-.11-2.1-.15-3.14-.04-1.75.03-3.48.2-5.21.17-1.73.42-3.46.73-5.21.15-.7-.08-1.26-.7-1.69-.39-.27-.79-.47-1.19-.58-.41-.12-.82-.21-1.25-.29-.62-.08-1.07,0-1.34.23-.27.23-.45.64-.52,1.22-.23,1.36-.41,2.75-.52,4.16-.06.67-.07,1.37-.11,2.06-.06.18-.11.36-.17.54-.1.27-.19.55-.26.82-.7,2.94-1.82,5.7-3.35,8.28-.31.47-.65.91-1,1.32-.35.41-.76.77-1.23,1.09-.23.2-.4.27-.5.23-.1-.04-.21-.21-.32-.53,0-.12-.02-.2-.06-.23-.39-1.06-.65-2.13-.76-3.23-.12-1.1-.22-2.21-.29-3.35-.08-2.94-.08-5.86,0-8.78.08-2.92.27-5.84.59-8.78.1-.85.19-1.7.28-2.55.03-.28.04-.55.05-.81.19-.1.32-.17.32-.17,5.31-2.84,11.32-5.89,13.87-11.78,1.23-2.67.65-6.2-1.65-8.19-4.23-3.46-10.33-.42-13.05,3.47-2.65,3.86-4.26,8.37-5,12.98-.15.9-.26,1.8-.35,2.71-2.68,1.12-5.6,1.62-8.53,1.51-2.66-.1-5.31-.74-7.72-1.87-2.13-1-4.34-1.88-6.68-2.2-.46-.07-.92-.09-1.37-.1,3.24-2.09,6.15-4.65,7.73-8.3,1.23-2.67.65-6.2-1.65-8.19-4.23-3.46-10.33-.42-13.05,3.47-2.65,3.86-4.26,8.37-5,12.98-.11.71-.21,1.42-.3,2.14-.02,0-.03,0-.05,0-.04.17-.09.33-.19.47-.22.28-.6.36-.94.44-4.37.9-7.15.72-10.36-2.67-1.69-1.79-3.33-3.82-5.66-4.59-1.01-.33-2.38-.24-2.8.73-.41.94.37,1.95,1.12,2.63,3.19,2.9,8.34,5.91,12.66,6.42,1.96.23,3.94-.08,5.89-.39-.16,2.99-.31,5.98-.47,8.97-.09,1.69-.17,3.4-.2,5.1-.34-.03-.69-.07-1.01-.06-.49.02-1.01.07-1.56.15-.47.04-.72-.16-.76-.59-.16-1.14-.55-2.29-1.17-3.46-.55-1.02-1.23-1.88-2.06-2.58-.82-.7-1.84-1.21-3.05-1.53-.86-.2-1.63-.1-2.29.29-.55.31-1,.68-1.35,1.09-.35.41-.69.89-1,1.44-.55.86-1.01,1.75-1.38,2.67-.37.92-.7,1.87-.97,2.85-.04.16-.08.3-.12.44-.04.14-.08.26-.12.38h-.18c.04-.43.06-.84.06-1.23s.02-.8.06-1.23c.08-.74.15-1.49.21-2.23.06-.74.09-1.51.09-2.29,0-.7-.31-1.23-.94-1.59-.43-.27-.9-.47-1.41-.59-.51-.12-1.04-.14-1.59-.06-.35.04-.61.13-.76.26-.16.14-.27.38-.35.73-.16.59-.26,1.18-.29,1.79-.04.61-.1,1.22-.18,1.85-.16,2.27-.24,4.52-.24,6.75,0,.32-.02.65-.02.97-.06.18-.1.38-.16.56-.43,1.29-.9,2.55-1.41,3.76-.51,1.21-1.16,2.39-1.94,3.52-.2.27-.39.53-.59.76-.2.23-.45.47-.76.7-.16-.63-.24-1.23-.24-1.82,0-.67.02-1.3.06-1.91.04-.61.1-1.24.18-1.91.12-1.49.21-2.97.29-4.46.08-1.49.08-2.97,0-4.46-.04-.67-.14-1.34-.29-2.03-.16-.68-.41-1.34-.76-1.97-.78-1.41-1.92-2.31-3.41-2.7-.55-.12-1.07-.12-1.56,0-.49.12-.91.43-1.26.94-.23.31-.45.64-.65.97-.2.33-.35.7-.47,1.09-.16.43-.3.88-.44,1.35-.14.47-.28.94-.44,1.41-.04.12-.06.24-.06.35s-.08.22-.23.29c-.04-.12-.08-.22-.12-.32-.04-.1-.08-.19-.12-.26-.27-1.02-.73-1.81-1.38-2.38-.65-.57-1.46-.97-2.44-1.2-1.17-.27-2.17.02-2.99.88-.67.74-1.19,1.53-1.59,2.35-.31.67-.61,1.35-.88,2.06-.27.7-.53,1.41-.76,2.11-.08.2-.14.38-.18.56-.04.18-.12.36-.24.56-.08-.08-.12-.14-.12-.18v-.18c-.04-.9-.02-1.81.06-2.73.08-.92.16-1.85.23-2.79.08-.43.13-.87.15-1.32.02-.45.11-.89.26-1.32.12-.47-.02-.86-.41-1.17-1.17-.98-2.47-1.41-3.88-1.29-.59.08-.94.39-1.06.94-.08.27-.14.55-.18.82-.04.27-.08.57-.12.88-.2,1.61-.34,3.19-.44,4.76-.06,1.02-.12,2.06-.17,3.1-.29.79-.62,1.55-.97,2.3-.7,1.49-1.51,2.94-2.41,4.34-.39.59-.81,1.13-1.26,1.62-.45.49-.95.95-1.5,1.38-.31.27-.65.49-1,.65-.35.16-.74.29-1.17.41-.47.23-.94.12-1.41-.35-.43-.51-.78-1-1.06-1.47-.43-.7-.74-1.45-.94-2.23-.2-.78-.35-1.59-.47-2.41-.08-.55-.08-.85,0-.91.08-.06.39-.11.94-.15,2.11,0,3.91-.76,5.4-2.29,1.68-1.8,2.7-3.93,3.05-6.4.12-1.02-.07-2.02-.56-3-.49-.98-1.4-1.66-2.73-2.06-2.47-.7-4.7-.29-6.69,1.23-.78.59-1.42,1.26-1.91,2.03-.49.76-.93,1.58-1.32,2.44-.94,2.23-1.41,4.52-1.41,6.87-.08.7-.08,1.38,0,2.03.08.65.21,1.28.41,1.91.51,1.68,1.27,3.1,2.29,4.26,1.02,1.15,2.43,1.95,4.23,2.38,1.06.23,2.08.28,3.08.15,1-.14,1.93-.6,2.79-1.38.31-.27.63-.56.94-.85.31-.29.59-.62.82-.97,1.1-1.5,2.01-3.05,2.76-4.64.03.7.05,1.4.12,2.11.2,1.45.51,2.78.94,3.99.31.74.75,1.27,1.32,1.59.57.31,1.24.51,2.03.59.9,0,1.35-.45,1.35-1.35-.04-.31-.04-.61,0-.88.04-.27.08-.55.12-.82.08-.78.2-1.58.35-2.38.16-.8.33-1.59.53-2.38.31-1.6.74-3.16,1.29-4.67.55-1.51,1.25-2.95,2.11-4.32.2-.31.37-.6.53-.85.16-.25.39-.48.7-.68.12.16.18.3.18.44v.44c0,2.04.06,4.05.18,6.05.08.78.18,1.56.29,2.32.12.76.39,1.5.82,2.2.27.39.63.7,1.06.94.43.23.88.31,1.35.23.51-.04.88-.33,1.12-.88.2-.43.33-.87.41-1.32.08-.45.16-.89.23-1.32.2-1.02.39-2.04.59-3.05.2-1.02.39-2.04.59-3.05.2-.9.43-1.76.7-2.58.27-.82.67-1.62,1.17-2.41.08-.08.13-.17.15-.26.02-.1.11-.15.26-.15.08.08.12.2.12.35,0,.74,0,1.47.03,2.17.02.7-.01,1.43-.09,2.17-.08,1.33-.16,2.65-.24,3.96-.08,1.31-.08,2.63,0,3.96.04.59.08,1.17.12,1.76.04.59.12,1.16.23,1.7.31,1.21.82,2.2,1.53,2.97.7.76,1.68,1.3,2.94,1.61,1.41.39,2.49-.04,3.23-1.29.23-.35.44-.71.62-1.09.18-.37.36-.75.56-1.15.35-.77.66-1.54.94-2.32,0,.07,0,.14,0,.21-.04,1.88-.05,3.73-.03,5.55.02,1.82.03,3.65.03,5.49,0,1.02.03,2.04.09,3.05.06,1.02.09,2.04.09,3.05s.35,1.96,1.06,2.7c.31.39.67.65,1.06.76.39.12.8.18,1.23.18.39.04.7-.04.94-.23.23-.2.45-.43.65-.7.31-.43.45-.84.41-1.23,0-.27-.01-.54-.03-.79-.02-.26-.03-.52-.03-.79-.08-1.76-.18-3.5-.29-5.23-.12-1.72-.08-3.46.12-5.23.08-.43.14-.87.18-1.32.04-.45.12-.95.23-1.5.27.39.54.74.79,1.06.25.31.54.57.85.76.7.43,1.47.72,2.29.88.82.16,1.63.19,2.44.09.8-.1,1.58-.32,2.32-.68.74-.35,1.37-.82,1.88-1.41.47-.51.86-1.05,1.17-1.62.31-.57.63-1.16.94-1.79.43-1.06.72-2.13.88-3.23.16-1.1.27-2.21.35-3.35v-1.15c0-.37-.02-.73-.06-1.09-.04-.24,0-.39.12-.47.12-.08.27-.14.47-.18.55-.08,1.07-.12,1.56-.12h.77c.02,2.49.2,4.96.73,7.39.38,1.71.96,3.44,2.1,4.77,1.15,1.33,2.96,2.19,4.67,1.8.05-.01.1-.04.16-.05.8-.18,1.51-.58,2.12-1.22.86-.86,1.59-1.82,2.17-2.88.34-.65.64-1.31.93-1.96.28,1.26.81,2.46,1.64,3.61.98,1.25,2.27,2,3.88,2.23,1.6.27,2.86-.31,3.76-1.76.67-1.13,1.19-2.27,1.59-3.41.31-.86.63-1.72.94-2.58.31-.86.63-1.74.94-2.64.08.27.13.54.14.79.02.26.07.54.15.85.15,1.02.37,2.02.64,2.99.27.98.66,1.92,1.16,2.82,1.01,1.92,2.58,2.9,4.73,2.94.78.04,1.45-.27,2-.94.27-.35.5-.72.68-1.12.18-.39.34-.78.5-1.17.57-1.6,1.09-3.21,1.56-4.81.16.97.34,1.93.56,2.87.43,2.04,1.47,3.62,3.11,4.76.9.59,1.87.83,2.91.73,1.04-.1,1.93-.54,2.67-1.32.86-.86,1.59-1.82,2.17-2.88.59-1.13,1.1-2.27,1.53-3.41.1-.28.19-.56.29-.84.01.12.01.24.02.37.12,1.4.37,2.7.76,3.9.35,1.09.87,1.97,1.57,2.65.7.68,1.63,1.12,2.79,1.31,1.13.19,2.08-.08,2.85-.81.31-.31.59-.62.84-.93.25-.31.47-.66.67-1.05.61-1.17,1.17-2.36,1.7-3.55.27.74.59,1.48.98,2.2.72,1.32,1.64,2.33,2.75,3.05,1.12.72,2.39,1.18,3.83,1.38,2.11.32,3.81-.38,5.09-2.09.4-.44.71-.92.93-1.44.22-.52.43-1.06.63-1.62.2-.4.46-.6.78-.6.76,0,1.44-.24,2.04-.72.89-.67,1.63-1.44,2.22-2.31.06.78.15,1.56.26,2.34.08.7.19,1.41.32,2.11.14.7.36,1.39.68,2.06.31.67.77,1.2,1.38,1.59.61.39,1.28.57,2.03.53.74-.04,1.1-.43,1.06-1.17-.04-.2-.05-.37-.03-.53.02-.16.03-.33.03-.53.08-.59.18-1.17.29-1.76.12-.59.21-1.17.29-1.76.31-2.15.77-4.25,1.38-6.28.61-2.04,1.4-4.03,2.38-5.99.2-.35.39-.69.59-1.03.2-.33.45-.64.76-.91.16-.12.29-.23.41-.35.12-.12.27-.2.47-.23.08.12.12.23.12.35v.29c.08.98.09,1.96.03,2.94-.06.98-.11,1.96-.15,2.94-.08,1.14-.16,2.28-.23,3.44-.08,1.16-.1,2.3-.06,3.44.04,1.33.31,2.68.81,4.05.74,1.88,2.09,3.05,4.07,3.52,1.05.31,1.95.08,2.69-.7.24-.23.46-.48.68-.73.21-.25.42-.54.62-.85.43-.67.79-1.34,1.09-2.03.29-.68.6-1.4.91-2.14.41-.96.75-1.94,1.04-2.94.31-.78.58-1.57.81-2.37.4-1.43.82-2.85,1.26-4.28.05-.17.09-.33.14-.5,0,.02.02.04.03.06.29.55.57,1.1.82,1.65.26.55.49,1.1.71,1.64.22.51.13.99-.27,1.43-.62.66-1.22,1.34-1.78,2.03-.57.69-1.09,1.44-1.56,2.25-.95,1.53-1.11,3.2-.49,4.99.33,1.02,1.02,1.74,2.08,2.14.88.33,1.86.51,2.96.55.07-.04.29-.06.66-.06.07-.04.16-.05.25-.05s.17-.02.25-.05c1.13-.26,2.02-.74,2.66-1.45.64-.71,1.12-1.58,1.45-2.6.51-1.65.6-3.4.27-5.26-.26-1.28-.68-2.6-1.26-3.95-.18-.33-.26-.54-.22-.63.04-.09.22-.25.55-.47.29-.22.6-.43.93-.63,1.6-.97,3.38-2.11,4.99-.32.62.69.66,1.53.4,2.41-.12.39-.28.87.01,1.15.15.14.39.17.59.12.2-.06.38-.18.54-.31,1.6-1.31,3.04-4.8,1.11-6.47Zm-78.29-19.14c.04-.27.07-.55.07-.84.24-.99.52-1.96.85-2.9.55-1.56,1.23-2.99,2.13-4.28.98-1.41,3.71-3.08,5.18-2.61.45.09.89.73,1.08,1.2.46,1.27-.3,2.69-.98,3.82-1.47,2.32-3.93,4.24-6.56,5.94-.63.41-1.32.83-2.01,1.25.08-.52.17-1.05.25-1.57Zm-109.46,25.58c.2-1.57.52-3.07.97-4.52.45-1.45,1.2-2.8,2.26-4.05.51-.67,1.1-1.15,1.76-1.47.55-.31.98-.2,1.29.35.47.78.67,1.64.59,2.58-.2,1.53-.66,2.88-1.38,4.05-.73,1.17-1.71,2.21-2.97,3.11-.51.39-1.14.65-1.88.76-.31.08-.5.09-.56.03-.06-.06-.09-.24-.09-.56v-.29Zm49.44,1.76c.47-2.66,1.19-5.13,2.17-7.4.24-.55.49-1.08.76-1.59.27-.51.57-1,.88-1.47.31-.43.68-.8,1.12-1.12.47-.27.76-.39.88-.35.12.04.31.29.59.76.31.59.56,1.18.73,1.79.18.61.32,1.24.44,1.91.08.39.13.77.15,1.15.02.37.07.75.15,1.15.04.39-.14.65-.53.76-.31.08-.62.16-.91.24-.29.08-.6.16-.91.23-1.92.59-3.52,1.7-4.82,3.35-.08.08-.17.19-.26.32-.1.14-.24.23-.44.26Zm7.93-2.41c-.08,1.21-.23,2.4-.44,3.55-.22,1.15-.54,2.3-.97,3.43-.35.9-.81,1.69-1.38,2.38-.57.69-1.32,1.24-2.26,1.67-.43.2-.74.27-.94.24-.2-.04-.43-.25-.7-.65-.47-.74-.79-1.5-.97-2.26-.18-.76-.09-1.59.26-2.5,1.25-2.97,3.31-5.11,6.17-6.4.08-.08.17-.12.26-.12s.19-.02.26-.06c.31-.08.51-.1.59-.06.08.04.12.23.12.59v.18Zm15.46-24.93c.04-.27.07-.55.07-.84.24-.99.52-1.96.85-2.9.55-1.56,1.23-2.99,2.13-4.28.98-1.41,3.71-3.08,5.18-2.61.45.09.89.73,1.08,1.2.46,1.27-.3,2.69-.98,3.82-1.47,2.32-3.93,4.24-6.56,5.94-.63.41-1.32.83-2.01,1.25.08-.52.17-1.05.25-1.57Zm17.49,22.73c-.12.61-.27,1.22-.47,1.85-.31.94-.63,1.89-.94,2.85-.31.96-.69,1.91-1.12,2.85-.31.67-.65,1.29-1,1.88-.35.59-.76,1.16-1.23,1.7-.2.2-.37.38-.53.56-.16.18-.39.32-.7.44-.63-1.25-1-2.58-1.12-3.99-.43-3.68.04-7.26,1.41-10.75.23-.67.54-1.3.91-1.91.37-.61.83-1.15,1.38-1.61l.53-.35c.27-.24.57-.24.88,0,.31.16.57.39.76.7.43.59.76,1.19,1,1.82.23.63.35,1.31.35,2.05.04.67,0,1.3-.12,1.91Zm11.92-10.33c-.09,2.6-.2,5.21-.31,7.81-.06,1.44-.11,2.84-.08,4.25-.19.67-.41,1.32-.63,1.97-.45,1.27-.91,2.53-1.38,3.79-.23.67-.5,1.33-.79,2-.29.67-.66,1.31-1.09,1.94-.08.12-.17.25-.26.38-.1.14-.25.25-.44.32-.27-.35-.47-.8-.59-1.35-.35-1.13-.61-2.29-.76-3.46-.16-1.17-.27-2.35-.35-3.52-.12-1.76-.09-3.52.09-5.28.17-1.76.44-3.52.79-5.28.04-.63-.16-1.1-.59-1.41-.51-.31-1.02-.53-1.54-.65-.52-.12-1.07-.12-1.65,0-.54.12-.93.45-1.16,1-.08.16-.13.31-.15.47-.02.16-.13.31-.32.47-.47-.59-1.02-.99-1.64-1.2-.63-.21-1.27-.36-1.94-.44-1.17-.12-2.28-.03-3.32.26-1.04.29-1.97.89-2.79,1.79-.31.31-.6.64-.85.97-.26.33-.48.7-.68,1.09-.94,1.76-1.54,3.55-1.79,5.37-.09.65-.13,1.31-.18,1.97-.36,1.14-.74,2.26-1.21,3.35-.91,2.09-2.19,4.08-4.02,5.44-.06.02-.11.03-.15.01-.1-.04-.21-.21-.32-.53,0-.12-.02-.2-.06-.23-.39-1.06-.65-2.13-.76-3.23-.12-1.1-.22-2.21-.29-3.35-.08-2.94-.08-5.86,0-8.78.08-2.92.27-5.84.59-8.78.1-.85.19-1.7.28-2.55.02-.16.02-.32.03-.47.04-.12.09-.23.18-.33.15-.17.38-.26.6-.34,3.52-1.28,6.94-.89,10.38.57,1.87.79,3.78,1.52,5.68,2.23,4.35,1.62,9.23,1.53,13.66.25-.07,1.16-.12,2.33-.16,3.49Zm35.4,18.32c-.16.4-.31.79-.45,1.17-.49,1.32-1.26,2.55-2.63,3.08-.13.05-.28.1-.42.06-.18-.04-.31-.2-.42-.35-2.72-3.69-3.09-8.85-2.01-13.18.2-.8.45-1.56.75-2.27.54-1.31,1.4-2.41,2.44-3.36.06-.05.12-.1.19-.12.09-.02.17.02.25.06,1.51.71,2.57,1.92,3.01,3.54.39,1.42.53,2.87.49,4.31-.06,2.38-.58,4.76-1.21,7.06Zm36.57,1.4c-.16.71-.39,1.34-.69,1.89-.29.55-.64.95-1.04,1.21-.62-.84-.84-1.74-.66-2.69.18-.95.49-1.8.93-2.55.44-.75.95-1.49,1.54-2.22.15.66.21,1.37.19,2.14-.02.77-.11,1.51-.27,2.22Z"/>
      </g>
    </g>
  </g>
</svg>